<?xml version="1.0" encoding="UTF-8"?>
<!DOCTYPE svg PUBLIC "-//W3C//DTD SVG 1.1//EN" "http://www.w3.org/Graphics/SVG/1.1/DTD/svg11.dtd">
<!-- Creator: CorelDRAW 2020 (64 Bit) -->
<svg xmlns="http://www.w3.org/2000/svg" xml:space="preserve" width="210mm" height="297mm" version="1.1" style="shape-rendering:geometricPrecision; text-rendering:geometricPrecision; image-rendering:optimizeQuality; fill-rule:evenodd; clip-rule:evenodd"
viewBox="0 0 21000 29700"
 xmlns:xlink="http://www.w3.org/1999/xlink"
 xmlns:xodm="http://www.corel.com/coreldraw/odm/2003">
 <defs>
  <style type="text/css">
   <![CDATA[
    .fil1 {fill:#000807}
    .fil0 {fill:#000807;fill-rule:nonzero}
    .fil3 {fill:url(#id0);fill-rule:nonzero}
    .fil2 {fill:url(#id1);fill-rule:nonzero}
   ]]>
  </style>
  <linearGradient id="id0" gradientUnits="userSpaceOnUse" x1="9876.29" y1="10338.76" x2="9876.29" y2="10881.14">
   <stop offset="0" style="stop-opacity:1; stop-color:#F58634"/>
   <stop offset="0.380392" style="stop-opacity:1; stop-color:#F6A86C"/>
   <stop offset="0.568627" style="stop-opacity:1; stop-color:#F7CAA4"/>
   <stop offset="0.803922" style="stop-opacity:1; stop-color:#F6A661"/>
   <stop offset="1" style="stop-opacity:1; stop-color:#F5811E"/>
  </linearGradient>
  <linearGradient id="id1" gradientUnits="userSpaceOnUse" xlink:href="#id0" x1="9876.34" y1="11097.24" x2="9876.34" y2="12544.96">
  </linearGradient>
 </defs>
 <g id="Camada_x0020_1">
  <metadata id="CorelCorpID_0Corel-Layer"/>
  <path class="fil0" d="M5333.62 12861.97l62.5 307.77 -111.63 0 -5.92 -55.25 -39.39 0 -5.93 55.25 -113.03 0 55.4 -307.77 158 0zm-57.97 198.05c-5.23,-34.89 -10.72,-78.08 -16.56,-129.64 -10.8,59.15 -17.61,102.34 -20.53,129.64l37.09 0zm1057.03 -198.05l110.03 0c29.74,0 52.58,1.69 68.61,5.12 15.92,3.44 27.96,8.37 36.02,14.79 8.05,6.48 13.46,14.33 16.38,23.47 2.82,9.21 4.24,23.41 4.24,42.67l0 26.79c0,19.58 -2.74,33.91 -8.32,42.86 -5.49,9.01 -15.66,15.95 -30.36,20.75 -14.78,4.8 -34.09,7.2 -57.89,7.2l-29.29 0 0 124.12 -109.42 0 0 -307.77zm109.42 52.53l0 78.4c3.08,0.13 5.74,0.19 7.95,0.19 10.01,0 16.92,-1.81 20.81,-5.44 3.8,-3.57 5.76,-11.09 5.76,-22.51l0 -25.35c0,-10.51 -2.23,-17.38 -6.73,-20.56 -4.43,-3.18 -13.72,-4.73 -27.79,-4.73zm1184.41 -52.53l0 307.77 -109.42 0 0 -307.77 109.42 0zm1210.52 180.41c0,30.93 -0.98,52.78 -3.02,65.62 -1.95,12.91 -8.13,24.65 -18.59,35.28 -10.44,10.64 -24.59,18.81 -42.39,24.51 -17.79,5.71 -38.51,8.56 -62.14,8.56 -22.48,0 -42.59,-2.72 -60.46,-8.1 -17.88,-5.38 -32.3,-13.43 -43.12,-24.19 -10.87,-10.76 -17.34,-22.5 -19.46,-35.15 -2.03,-12.71 -3.1,-34.89 -3.1,-66.53l0 -52.66c0,-30.93 0.97,-52.79 3,-65.63 1.96,-12.9 8.15,-24.64 18.6,-35.27 10.44,-10.64 24.61,-18.81 42.39,-24.52 17.8,-5.7 38.51,-8.56 62.15,-8.56 22.48,0 42.57,2.73 60.46,8.11 17.88,5.38 32.31,13.42 43.1,24.19 10.9,10.76 17.35,22.5 19.48,35.15 2.04,12.71 3.1,34.89 3.1,66.53l0 52.66zm-109.42 -101.1c0,-14.27 -1.05,-23.41 -3.18,-27.43 -2.13,-3.96 -6.47,-5.97 -13.01,-5.97 -5.58,0 -9.83,1.62 -12.84,4.87 -2.92,3.17 -4.42,12.71 -4.42,28.53l0 143.64c0,17.83 0.96,28.86 2.92,33.01 1.95,4.21 6.45,6.29 13.54,6.29 7.26,0 11.96,-2.4 13.99,-7.2 2.03,-4.8 3,-16.28 3,-34.37l0 -141.37zm1312.07 -79.31l0 307.77 -95.61 0 -56.82 -139.94 0 139.94 -91.36 0 0 -307.77 91.36 0 61.07 138.58 0 -138.58 91.36 0zm961.6 0l182.17 0 0 61.48 -72.75 0 0 58.75 67.98 0 0 58.36 -67.98 0 0 67.7 80.19 0 0 61.48 -189.61 0 0 -307.77zm1247.9 0l0 307.77 -109.42 0 0 -307.77 109.42 0zm961.42 0l77.29 0c51.51,0 86.39,1.43 104.63,4.34 18.22,2.92 33.1,10.38 44.6,22.38 11.51,11.93 17.27,31.06 17.27,57.26 0,23.93 -4.08,40.01 -12.22,48.25 -8.06,8.23 -24.07,13.16 -47.98,14.78 21.6,3.96 36.2,9.21 43.64,15.82 7.44,6.55 12.04,12.65 13.8,18.16 1.87,5.51 2.76,20.69 2.76,45.53l0 81.25 -101.45 0 0 -102.4c0,-16.47 -1.77,-26.65 -5.31,-30.6 -3.45,-3.96 -12.66,-5.91 -27.61,-5.91l0 138.91 -109.42 0 0 -307.77zm109.42 52.53l0 68.48c12.2,0 20.71,-1.24 25.58,-3.7 4.86,-2.46 7.34,-10.5 7.34,-24.06l0 -16.92c0,-9.8 -2.39,-16.22 -7.08,-19.26 -4.7,-3.05 -13.36,-4.54 -25.84,-4.54zm1282.83 -52.53l62.5 307.77 -111.63 0 -5.92 -55.25 -39.4 0 -5.92 55.25 -113.04 0 55.41 -307.77 158 0zm-57.97 198.05c-5.23,-34.89 -10.72,-78.08 -16.56,-129.64 -10.8,59.15 -17.61,102.34 -20.53,129.64l37.09 0z"/>
  <g id="_2569949683456">
   <path class="fil1" d="M12005.57 6954.4c599.03,626.8 841.26,767.03 379.84,1334.15 55.89,350.43 70.05,693.91 -75.28,1010.8 13.61,216.6 27.19,433.2 40.8,649.8 683.32,-86.02 1305.64,-49.86 1936.71,-31.35 120.28,38.64 260.85,44.28 317.03,188.36 -3197.68,20.98 -6395.34,42 -9593.02,62.98 82.09,-125.17 273.46,-157.8 389.24,-181.92 687.99,1.57 1297.5,2.96 1985.49,4.53 -28.16,-207.78 34.2,-468.14 9.48,-527.34 -66.74,-232.69 -140.92,-455.5 -62.7,-875.74 11.53,-126.63 23.04,-253.22 34.57,-379.85 59.65,-2.1 119.28,-4.18 178.93,-6.29 -256.89,-208.86 -237.42,-277.54 -232.18,-577.62 -58.94,124.6 -77.11,301.31 -18.85,530.55 41.35,212.93 -17.77,480.81 -69.02,747.1 -65.89,275.26 -227.02,520.05 -502.22,728.31 -71.53,49.74 -187.36,39.89 -299.81,-1.54 -472.66,-262.47 -920.62,-704.33 -1276.11,-1418.91 230.47,2.25 350.82,-98.12 455.18,-213.47 432.07,380.18 657.86,222.01 899.44,729.87 -36.53,-938.02 591.49,-986.71 618.57,-1277.63 -53.05,20.59 -78.91,67.2 -119.28,113.02 74.71,-618.2 382.55,-843.69 825.69,-875.78 113.89,-217.25 255.46,-285.05 411.22,-276.25 27.96,-120.99 -9.46,-181.49 -148.98,-147.55 -420.5,53.13 -292.97,-205.87 -395.39,-386.08 -67.57,-155.13 -117.2,-323.58 -94.84,-564.87 -44.57,-216.71 -71.65,-581.69 -2.45,-816.26 463.78,-791.69 1636.77,-620.99 1815.95,163.21 48.15,672.33 -125.54,552.77 -224.32,1105.02 -9.48,20.33 -80.75,423.41 20.65,432.8 7.94,-201.08 12.1,-348.06 35.68,-343.68 32.26,69.22 56.35,156.58 75.77,228.82 54.55,73.89 383.43,121.61 480.47,259.82 -94.99,20.36 -187.59,47.53 -263.67,122.44 289.98,-75.23 560.56,-123.83 665.46,53.36 -743.57,69.82 -677.28,1198.53 -752.17,1350.07 -458.17,837.16 -596.21,1366.04 44.05,2075.01 16.92,21.92 129.59,21.55 117.69,-2.76 -156.93,-317.03 -471.22,-531.95 -453.48,-951.49 -1.37,-239.12 219.02,-831.27 367.23,-1064.13 109.88,-192.37 -4.1,-1289.44 739.61,-1350.18 35.71,-3.41 68.59,-1.19 83.77,-2.42 85.93,1.74 182,16.03 289.58,45.22 -58.66,-79.59 -154.16,-100.8 -255.55,-112.73 84.51,-38.69 230.29,-242.63 185.56,-459.48 21.27,2.59 64.47,178.9 62.79,194.62 63.69,-190.92 -39.67,-405.53 -194.62,-609 -329.05,-484.69 -428.05,-933.52 -3.71,-1301.04 435.46,-273.09 1248.62,-299.29 1461.91,270.73 82.21,208.32 70.11,708.32 -54.89,822.45 14.09,200.42 42.65,402.87 -131.61,577.59 -124.74,160.34 -123.09,325.12 -184.31,322.24 -108.26,4.95 -241.18,-43.62 -242.57,-17.77 -3.28,26.03 -3.02,57.78 0,94.19 61.19,145.88 134.54,167.32 182.09,182.07 280.81,21.84 727,-92.86 948.04,640.43 -140.43,-138.67 -279.67,-264.49 -407.46,-266.43zm-1569.2 -631.49c-12.13,-472.76 -793.91,-707.7 -891.47,-1274.44 0,-531.41 371.53,-791.32 784.12,-690.27 -273.66,171.27 -317.63,750.89 -237.73,868.17 111.33,182.38 467.66,623.87 345.08,1096.54zm1355.39 -1831.14c-559.09,-551.79 -1989.85,-172.26 -1287.06,1048.47 -237.75,-216.77 -385.7,-760.96 -106.72,-1060.99 420.62,-400.09 1060.03,-393.49 1393.78,12.52zm-1059.35 621.82c15.04,-4.59 12.07,57.57 11.02,81.63 -236.99,92.09 -67.88,394.48 12.56,455.19 -117.63,-26.71 -258.35,-212.42 -185.23,-404.96 33.32,-55.24 75.83,-87.58 134.23,-80.07 13.87,-14.12 6.09,-54.95 27.42,-51.79zm-541.6 -697.04c-429.19,131.69 -536.99,672.84 -119.31,1252.48 -192.77,-187.24 -419.68,-462.82 -382.97,-791.04 51.14,-301.08 200,-478.42 502.28,-461.44zm-1089.79 1533.32c-8.91,-108.83 6.55,-205.87 -2.36,-314.7 -35.73,40.15 -85.62,27.31 -125.57,17.23 196.73,-106.15 215.52,-540.86 -46.98,-489.61 58.88,-84.62 140.4,-104.27 215.01,-50.2 335.3,-1002.42 -1071.74,-1387.85 -1495.74,-455.95 128.81,-719.71 1390.18,-892.77 1685.71,38.44 97.47,398.41 -92.05,418.31 -230.07,1254.79zm-1266.52 2603.83c127.65,108 282.49,213.44 376.68,348.44 -311.87,-108.18 -459.31,544.56 28.25,652.93 -222.64,62.3 -254.76,167.8 -291.15,427.79 -32.71,0.52 -65.4,1.06 -98.12,1.57 -10.87,-198.09 16.18,-352.22 84.8,-458.26 -103.19,-229.84 -114.24,-568.62 -100.46,-972.47zm395.48 -1255.62c-125.74,431.92 -228.82,607.89 81.63,919.77 -556.21,-65.46 -292.31,-666.15 -81.63,-919.77zm3740.39 2622.28c-10.45,-131.83 -21.38,-250.08 -31.83,-381.92 252.74,-395.42 258.4,-609.82 257.38,-819.31 -29.3,334.89 -146.45,606.93 -351.57,816.18 17.48,118.54 32.94,237.56 20.39,386.11 35.82,13.1 69.02,13.35 105.63,-1.06zm-435.99 -1642.49c175.94,-101.71 296.93,-264.21 311.19,-448.72 24.32,-314.58 -270.78,-574.01 -659.11,-579.44 -12.59,-0.18 -25.17,-0.09 -37.65,0.28 337.22,49.49 578.37,321.67 553.31,646.25 -11.1,143.67 -72.69,275.68 -167.74,381.63zm-1139.78 -373.38c-66.69,480.87 -243,808.29 -477.14,1054.74 6.6,35.05 2.25,93.87 -18.85,207.17 219.08,217.14 290.57,467.57 398.66,750.26 35.59,10.45 99.4,36.62 135,47.07 -35.6,-96.27 -71.16,-192.51 -106.75,-288.78 175.54,-280.93 716.57,-463.19 75.34,-1263.48 -35.08,-82.12 39.78,-329.1 -6.26,-506.98z"/>
   <path class="fil1" d="M5034.94 8144.64c483.72,0 875.83,-392.11 875.83,-875.83 14.12,-372.69 -173.83,-504.02 -339.64,-692.49 22.93,130.19 151.74,166.18 134.6,228.91 -27.11,119.3 -147.84,84.76 -335.08,17.28 0,0 -0.03,0.03 -0.03,0.03 117.77,87.13 193.85,225.09 193.85,380.35 0,263.56 -218.99,477.17 -489.21,477.17 -270.16,0 -489.21,-213.61 -489.21,-477.17 0,-263.49 219.05,-477.16 489.21,-477.16 -190.83,-84.77 -318.97,70.07 -370.9,68.51 -256.38,-5.39 -155.04,-298.13 247.98,-361.54 -435.8,-5.95 -793.2,384.57 -793.2,836.11 0,483.72 392.11,875.83 875.8,875.83z"/>
   <path class="fil1" d="M5052.82 7611.72c227.71,0 412.25,-184.54 412.25,-412.21 0,-7.86 -0.26,-15.66 -0.68,-23.38 -55.59,196.73 -140.41,258.63 -250.46,204.19 27.08,-74.04 34.2,-158.15 36.1,-244.85 -42.45,120.5 -91.94,250.68 -237.01,224.43 -174.12,-97.72 -62.28,-221.07 7.85,-340.58 -72.49,37.65 -149.57,64.64 -166.37,230.73 -24.71,45.13 -147.47,21.81 -166.37,-4.7 -20.53,-24.06 -27.65,-102.68 -30.98,-161.73 -10.74,36.76 -16.54,75.65 -16.54,115.89 0,227.67 184.59,412.21 412.21,412.21z"/>
   <path class="fil1" d="M12426.5 9307.03c96.75,-371.47 39.78,-798.66 109.88,-846.78 722.58,-244.65 862.99,-392.6 948.01,-503.05 209.11,204.04 440.89,91.17 370.68,168.25 -478.2,395.53 -1393.01,1228.68 -1428.57,1181.58z"/>
   <path class="fil1" d="M14091.85 8057.77c-474.52,0 -859.18,-384.66 -859.18,-859.18 -13.86,-365.61 183.15,-554.33 333.18,-679.32 -95.03,134.04 -148.86,163.01 -132.04,224.55 26.59,117.03 145.03,83.15 328.71,16.95 0,0 0.03,0.03 0.03,0.03 -115.53,85.47 -190.17,220.81 -190.17,373.12 0,258.55 214.83,468.1 479.92,468.1 265.02,0 479.91,-209.55 479.91,-468.1 0,-258.49 -214.89,-468.09 -479.91,-468.09 187.2,-83.16 312.9,68.74 363.85,67.2 251.5,-5.28 152.09,-292.45 -243.24,-354.66 427.48,-5.84 778.09,377.26 778.09,820.22 0,474.52 -384.66,859.18 -859.15,859.18z"/>
   <path class="fil1" d="M14074.31 7534.98c-223.38,0 -404.41,-181.03 -404.41,-404.38 0,-7.71 0.25,-15.36 0.67,-22.93 54.52,192.98 137.73,253.71 245.69,200.3 -26.56,-72.62 -33.54,-155.14 -35.42,-240.19 41.65,118.21 90.2,245.92 232.52,220.16 170.8,-95.86 61.08,-216.87 -7.71,-334.1 71.11,36.93 146.73,63.41 163.21,226.34 24.24,44.27 144.66,21.4 163.21,-4.61 20.14,-23.6 27.12,-100.72 30.39,-158.66 10.53,36.06 16.23,74.22 16.23,113.69 0,223.35 -181.09,404.38 -404.38,404.38z"/>
  </g>
  <path class="fil2" d="M5903.02 11547.02l-335.57 0 0 -102.78c0,-48.03 -4.39,-78.77 -12.89,-91.95 -8.49,-13.18 -22.54,-19.62 -42.46,-19.62 -21.66,0 -38.06,8.78 -49.19,26.65 -11.13,17.57 -16.69,44.21 -16.69,80.23 0,46.27 6.44,81.11 19.03,104.54 12.3,23.13 46.27,51.53 102.2,84.92 160.17,95.75 261.2,174.52 302.78,235.72 41.87,61.2 62.66,159.88 62.66,295.75 0,98.98 -11.71,171.89 -34.84,219.03 -23.14,46.85 -67.65,86.09 -134.12,117.72 -66.18,31.92 -143.19,47.73 -231.33,47.73 -96.63,0 -178.91,-18.45 -247.43,-55.05 -68.23,-36.61 -112.74,-83.16 -134.12,-139.68 -21.08,-56.81 -31.62,-137.33 -31.62,-241.29l0 -91.06 335.57 0 0 168.96c0,52.12 4.69,85.5 14.06,100.43 9.37,14.94 26.06,22.26 50.07,22.26 24.01,0 41.88,-9.37 53.59,-28.41 11.71,-18.74 17.57,-46.85 17.57,-83.74 0,-81.7 -11.13,-135.29 -33.38,-160.18 -23.14,-25.18 -79.36,-67.35 -168.96,-126.5 -89.61,-59.44 -148.76,-102.78 -178.04,-129.72 -28.99,-26.94 -53.29,-64.13 -72.33,-111.56 -19.03,-47.44 -28.69,-108.06 -28.69,-181.85 0,-106.29 13.47,-184.18 40.7,-233.38 27.23,-49.19 70.86,-87.55 131.48,-115.37 60.61,-27.82 133.52,-41.58 219.32,-41.58 93.7,0 173.35,15.23 239.53,45.39 65.89,30.45 109.52,68.52 130.89,114.78 21.38,45.98 32.21,124.16 32.21,234.56l0 55.05zm964.86 -421.67l0 929.13c0,105.42 -3.52,179.5 -10.25,221.96 -7.03,42.75 -27.24,86.67 -60.91,131.48 -33.68,45.09 -78.18,79.06 -133.24,102.19 -55.34,23.14 -120.35,34.85 -195.31,34.85 -82.87,0 -156.07,-13.76 -219.32,-41.29 -63.55,-27.53 -110.98,-63.25 -142.32,-107.17 -31.62,-44.22 -50.07,-90.78 -55.92,-139.68 -5.57,-48.9 -8.5,-151.98 -8.5,-308.64l0 -822.83 361.93 0 0 1042.45c0,60.62 3.22,99.56 9.67,116.25 6.44,16.99 19.62,25.48 39.23,25.48 22.26,0 36.9,-9.37 43.34,-27.82 6.44,-18.74 9.67,-62.66 9.67,-131.77l0 -1024.59 361.93 0zm140.25 0l363.98 0c98.39,0 173.94,7.61 226.94,23.13 52.71,15.52 92.53,37.78 119.18,66.77 26.65,29.28 44.51,64.71 54.17,106 9.37,41.58 14.06,105.71 14.06,192.68l0 120.93c0,88.44 -9.08,153.15 -27.53,193.56 -18.15,40.7 -51.83,72.03 -100.43,93.7 -48.91,21.67 -112.74,32.51 -191.51,32.51l-96.93 0 0 560.46 -361.93 0 0 -1389.74zm361.93 237.19l0 354.02c10.25,0.59 19.04,0.88 26.36,0.88 33.09,0 55.93,-8.2 68.81,-24.6 12.59,-16.1 19.04,-50.07 19.04,-101.61l0 -114.49c0,-47.44 -7.33,-78.48 -22.26,-92.83 -14.64,-14.34 -45.39,-21.37 -91.95,-21.37zm520.05 -237.19l602.63 0 0 277.6 -240.7 0 0 265.29 224.89 0 0 263.55 -224.89 0 0 305.7 265.3 0 0 277.6 -627.23 0 0 -1389.74zm730.01 0l255.64 0c170.42,0 285.79,6.44 346.12,19.62 60.32,13.18 109.51,46.85 147.58,101.02 38.07,53.88 57.1,140.27 57.1,258.57 0,108.05 -13.47,180.67 -40.41,217.86 -26.65,37.19 -79.65,59.44 -158.71,66.76 71.45,17.86 119.76,41.58 144.36,71.45 24.6,29.58 39.83,57.1 45.68,81.99 6.15,24.89 9.08,93.41 9.08,205.56l0 366.91 -335.58 0 0 -462.37c0,-74.38 -5.85,-120.35 -17.56,-138.21 -11.43,-17.86 -41.88,-26.65 -91.37,-26.65l0 627.23 -361.93 0 0 -1389.74zm361.93 237.19l0 309.22c40.41,0 68.52,-5.56 84.63,-16.69 16.11,-11.13 24.3,-47.44 24.3,-108.64l0 -76.43c0,-44.21 -7.9,-73.2 -23.42,-86.97 -15.52,-13.76 -44.22,-20.49 -85.51,-20.49zm1621.37 -237.19l0 277.6 -212.59 0 0 1112.14 -361.93 0 0 -1112.14 -214.35 0 0 -277.6 788.87 0zm82.57 0l255.64 0c170.42,0 285.79,6.44 346.12,19.62 60.32,13.18 109.51,46.85 147.58,101.02 38.07,53.88 57.1,140.27 57.1,258.57 0,108.05 -13.47,180.67 -40.41,217.86 -26.65,37.19 -79.65,59.44 -158.71,66.76 71.45,17.86 119.76,41.58 144.36,71.45 24.6,29.58 39.83,57.1 45.68,81.99 6.15,24.89 9.08,93.41 9.08,205.56l0 366.91 -335.58 0 0 -462.37c0,-74.38 -5.85,-120.35 -17.56,-138.21 -11.43,-17.86 -41.88,-26.65 -91.37,-26.65l0 627.23 -361.93 0 0 -1389.74zm361.93 237.19l0 309.22c40.41,0 68.52,-5.56 84.63,-16.69 16.11,-11.13 24.3,-47.44 24.3,-108.64l0 -76.43c0,-44.21 -7.9,-73.2 -23.42,-86.97 -15.52,-13.76 -44.22,-20.49 -85.51,-20.49zm584.18 -237.19l602.63 0 0 277.6 -240.7 0 0 265.29 224.89 0 0 263.55 -224.89 0 0 305.7 265.3 0 0 277.6 -627.23 0 0 -1389.74zm1091.94 0l0 1389.74 -361.93 0 0 -1389.74 361.93 0zm950.8 0l0 1389.74 -316.25 0 -187.99 -631.91 0 631.91 -302.2 0 0 -1389.74 302.2 0 202.05 625.76 0 -625.76 302.19 0zm968.95 814.63c0,139.68 -3.22,238.36 -9.96,296.34 -6.44,58.27 -26.94,111.28 -61.49,159.3 -34.55,48.02 -81.4,84.92 -140.26,110.69 -58.86,25.76 -127.38,38.65 -205.56,38.65 -74.38,0 -140.85,-12.3 -200,-36.6 -59.15,-24.31 -106.88,-60.62 -142.61,-109.23 -36.01,-48.61 -57.39,-101.61 -64.42,-158.71 -6.73,-57.39 -10.25,-157.54 -10.25,-300.44l0 -237.77c0,-139.67 3.22,-238.36 9.96,-296.33 6.44,-58.28 26.94,-111.28 61.49,-159.3 34.55,-48.02 81.41,-84.92 140.26,-110.69 58.86,-25.77 127.38,-38.65 205.57,-38.65 74.37,0 140.84,12.3 199.99,36.6 59.15,24.31 106.89,60.62 142.61,109.23 36.02,48.6 57.39,101.61 64.42,158.71 6.74,57.39 10.25,157.53 10.25,300.43l0 237.77zm-361.93 -456.51c0,-64.42 -3.51,-105.71 -10.54,-123.86 -7.03,-17.86 -21.38,-26.94 -43.05,-26.94 -18.44,0 -32.5,7.32 -42.46,21.96 -9.66,14.35 -14.64,57.39 -14.64,128.84l0 648.61c0,80.52 3.22,130.3 9.67,149.04 6.44,19.04 21.37,28.41 44.8,28.41 24.01,0 39.53,-10.84 46.26,-32.51 6.74,-21.66 9.96,-73.49 9.96,-155.19l0 -638.36z"/>
  <path class="fil3" d="M6910.81 10349.29l77.45 520.66 -138.34 0 -7.35 -93.47 -48.82 0 -7.35 93.47 -140.09 0 68.68 -520.66 195.82 0zm-71.86 335.04c-6.47,-59.02 -13.27,-132.09 -20.51,-219.3 -13.39,100.05 -21.83,173.11 -25.45,219.3l45.96 0zm1029.41 -107.95l-135.6 0 0 -90.4c0,-26.33 -1.42,-42.67 -4.28,-49.26 -2.85,-6.47 -9.21,-9.76 -18.98,-9.76 -10.97,0 -17.99,3.95 -20.95,11.85 -2.96,8.01 -4.5,25.12 -4.5,51.45l0 241.57c0,25.34 1.54,41.8 4.5,49.59 2.96,7.68 9.66,11.52 19.97,11.52 9.98,0 16.56,-3.84 19.63,-11.63 3.08,-7.68 4.61,-25.89 4.61,-54.53l0 -65.49 135.6 0 0 20.3c0,53.97 -3.84,92.26 -11.41,114.75 -7.57,22.6 -24.47,42.34 -50.47,59.35 -26.11,17 -58.14,25.45 -96.32,25.45 -39.6,0 -72.29,-7.13 -98.07,-21.5 -25.67,-14.37 -42.79,-34.23 -51.13,-59.68 -8.33,-25.45 -12.5,-63.63 -12.5,-114.64l0 -152.05c0,-37.52 1.31,-65.61 3.84,-84.37 2.63,-18.76 10.2,-36.86 23.04,-54.19 12.72,-17.34 30.38,-31.05 52.98,-41.03 22.6,-9.98 48.6,-14.92 78,-14.92 39.83,0 72.74,7.68 98.74,23.15 25.89,15.35 42.89,34.55 51.12,57.59 8.12,23.04 12.18,58.8 12.18,107.4l0 49.48zm822.94 -227.09l77.45 520.66 -138.34 0 -7.35 -93.47 -48.82 0 -7.35 93.47 -140.09 0 68.68 -520.66 195.82 0zm-71.86 335.04c-6.47,-59.02 -13.27,-132.09 -20.51,-219.3 -13.39,100.05 -21.83,173.11 -25.45,219.3l45.96 0zm713.46 -335.04l101.26 0c65.27,0 109.48,2.96 132.52,9 23.04,6.03 40.59,15.9 52.55,29.62 11.96,13.71 19.52,28.96 22.49,45.74 2.96,16.9 4.49,49.92 4.49,99.29l0 182.33c0,46.73 -2.19,78 -6.58,93.68 -4.39,15.8 -12.06,28.2 -22.93,37.08 -10.97,8.89 -24.46,15.03 -40.59,18.65 -16.01,3.51 -40.26,5.27 -72.62,5.27l-170.59 0 0 -520.66zm135.59 88.86l0 342.94c19.2,0 31.05,-3.95 35.44,-11.74 4.5,-7.9 6.69,-29.18 6.69,-63.96l0 -202.51c0,-23.59 -0.77,-38.73 -2.19,-45.42 -1.54,-6.69 -4.83,-11.52 -10.21,-14.59 -5.26,-3.18 -15.14,-4.72 -29.73,-4.72zm769.08 -88.86l225.77 0 0 104 -90.18 0 0 99.39 84.26 0 0 98.74 -84.26 0 0 114.53 99.4 0 0 104 -234.99 0 0 -520.66zm1231.7 0l0 520.66 -118.49 0 -0.33 -351.49 -47.06 351.49 -82.94 0 -49.69 -343.6 -0.33 343.6 -118.48 0 0 -520.66 174.98 0c4.93,31.49 10.31,68.57 16.12,110.91l19.2 132.2 30.83 -243.11 176.19 0zm731 0l0 520.66 -135.59 0 0 -520.66 135.59 0zm828.54 0l77.45 520.66 -138.34 0 -7.35 -93.47 -48.82 0 -7.35 93.47 -140.09 0 68.68 -520.66 195.82 0zm-71.86 335.04c-6.47,-59.02 -13.27,-132.09 -20.51,-219.3 -13.39,100.05 -21.83,173.11 -25.45,219.3l45.96 0z"/>
 </g>
</svg>
